<mxfile host="app.diagrams.net" modified="2024-05-17T12:29:48.670Z" agent="Mozilla/5.0 (Windows NT 10.0; Win64; x64) AppleWebKit/537.36 (KHTML, like Gecko) Chrome/124.0.0.0 Safari/537.36" etag="uomS91_Qdc7f0qo4Yb8F" version="24.4.4" type="device">
  <diagram name="Página-1" id="6aD2QRyhSAb4V3KT2a82">
    <mxGraphModel dx="11006" dy="4578" grid="1" gridSize="10" guides="1" tooltips="1" connect="1" arrows="1" fold="1" page="1" pageScale="1" pageWidth="827" pageHeight="1169" math="0" shadow="0">
      <root>
        <mxCell id="0" />
        <mxCell id="1" parent="0" />
        <mxCell id="KuvJ722Zvkt5GNq1RVQa-6" style="edgeStyle=orthogonalEdgeStyle;rounded=0;orthogonalLoop=1;jettySize=auto;html=1;exitX=0.5;exitY=1;exitDx=0;exitDy=0;exitPerimeter=0;" edge="1" parent="1" source="KuvJ722Zvkt5GNq1RVQa-1" target="KuvJ722Zvkt5GNq1RVQa-3">
          <mxGeometry relative="1" as="geometry" />
        </mxCell>
        <mxCell id="KuvJ722Zvkt5GNq1RVQa-1" value="Inicio" style="strokeWidth=2;html=1;shape=mxgraph.flowchart.start_1;whiteSpace=wrap;" vertex="1" parent="1">
          <mxGeometry x="-9000" y="-3480" width="132.25" height="60" as="geometry" />
        </mxCell>
        <mxCell id="KuvJ722Zvkt5GNq1RVQa-8" style="edgeStyle=orthogonalEdgeStyle;rounded=0;orthogonalLoop=1;jettySize=auto;html=1;exitX=0.5;exitY=1;exitDx=0;exitDy=0;exitPerimeter=0;entryX=0.5;entryY=0;entryDx=0;entryDy=0;" edge="1" parent="1" source="KuvJ722Zvkt5GNq1RVQa-3" target="KuvJ722Zvkt5GNq1RVQa-5">
          <mxGeometry relative="1" as="geometry" />
        </mxCell>
        <mxCell id="KuvJ722Zvkt5GNq1RVQa-3" value="print (&quot;Bem Vindo ao sistema de inscrição de candidatos!!!!&quot;)" style="strokeWidth=2;html=1;shape=mxgraph.flowchart.display;whiteSpace=wrap;" vertex="1" parent="1">
          <mxGeometry x="-9046.130000000001" y="-3370" width="224.04" height="100" as="geometry" />
        </mxCell>
        <mxCell id="KuvJ722Zvkt5GNq1RVQa-5" value="&lt;div&gt;mensagem_rep = &quot;Obrigado pela sua participação!!!!&quot;&lt;/div&gt;&lt;div&gt;mensagem_apr = &quot;Parabéns, você passou para a próxima fase!!!!, BOA SORTE!!!!&quot;&lt;/div&gt;" style="rounded=0;whiteSpace=wrap;html=1;" vertex="1" parent="1">
          <mxGeometry x="-9046.13" y="-3210" width="223.56" height="90" as="geometry" />
        </mxCell>
        <mxCell id="KuvJ722Zvkt5GNq1RVQa-14" style="edgeStyle=orthogonalEdgeStyle;rounded=0;orthogonalLoop=1;jettySize=auto;html=1;exitX=0.5;exitY=1;exitDx=0;exitDy=0;exitPerimeter=0;entryX=0.5;entryY=0;entryDx=0;entryDy=0;" edge="1" parent="1" source="KuvJ722Zvkt5GNq1RVQa-9" target="KuvJ722Zvkt5GNq1RVQa-11">
          <mxGeometry relative="1" as="geometry" />
        </mxCell>
        <mxCell id="KuvJ722Zvkt5GNq1RVQa-9" value="print (&quot;Agora vamos fazer algumas confirmações!!!!&quot;)" style="strokeWidth=2;html=1;shape=mxgraph.flowchart.display;whiteSpace=wrap;" vertex="1" parent="1">
          <mxGeometry x="-9045.890000000001" y="-3080" width="224.04" height="100" as="geometry" />
        </mxCell>
        <mxCell id="KuvJ722Zvkt5GNq1RVQa-10" style="edgeStyle=orthogonalEdgeStyle;rounded=0;orthogonalLoop=1;jettySize=auto;html=1;exitX=0.5;exitY=1;exitDx=0;exitDy=0;entryX=0.5;entryY=0;entryDx=0;entryDy=0;entryPerimeter=0;" edge="1" parent="1" source="KuvJ722Zvkt5GNq1RVQa-5" target="KuvJ722Zvkt5GNq1RVQa-9">
          <mxGeometry relative="1" as="geometry" />
        </mxCell>
        <mxCell id="KuvJ722Zvkt5GNq1RVQa-15" style="edgeStyle=orthogonalEdgeStyle;rounded=0;orthogonalLoop=1;jettySize=auto;html=1;exitX=0.5;exitY=1;exitDx=0;exitDy=0;entryX=0.5;entryY=0;entryDx=0;entryDy=0;" edge="1" parent="1" source="KuvJ722Zvkt5GNq1RVQa-11" target="KuvJ722Zvkt5GNq1RVQa-12">
          <mxGeometry relative="1" as="geometry" />
        </mxCell>
        <mxCell id="KuvJ722Zvkt5GNq1RVQa-11" value="cargo = input(&quot;Digite o cargo pretendido do candidato: &quot;)" style="html=1;strokeWidth=2;shape=manualInput;whiteSpace=wrap;rounded=1;size=26;arcSize=11;" vertex="1" parent="1">
          <mxGeometry x="-9012.98" y="-2923" width="157.26" height="90" as="geometry" />
        </mxCell>
        <mxCell id="KuvJ722Zvkt5GNq1RVQa-16" style="edgeStyle=orthogonalEdgeStyle;rounded=0;orthogonalLoop=1;jettySize=auto;html=1;exitX=0.5;exitY=1;exitDx=0;exitDy=0;entryX=0.5;entryY=0;entryDx=0;entryDy=0;" edge="1" parent="1" source="KuvJ722Zvkt5GNq1RVQa-12" target="KuvJ722Zvkt5GNq1RVQa-13">
          <mxGeometry relative="1" as="geometry" />
        </mxCell>
        <mxCell id="KuvJ722Zvkt5GNq1RVQa-12" value="nome_completo = input(&quot;Digite o nome completo do Candidato: &quot;)" style="html=1;strokeWidth=2;shape=manualInput;whiteSpace=wrap;rounded=1;size=26;arcSize=11;" vertex="1" parent="1">
          <mxGeometry x="-9012.98" y="-2780" width="157.26" height="90" as="geometry" />
        </mxCell>
        <mxCell id="KuvJ722Zvkt5GNq1RVQa-13" value="email = input(&quot;Digite o e-mail do Candidato: &quot;)" style="html=1;strokeWidth=2;shape=manualInput;whiteSpace=wrap;rounded=1;size=26;arcSize=11;" vertex="1" parent="1">
          <mxGeometry x="-9012.98" y="-2640" width="157.26" height="90" as="geometry" />
        </mxCell>
        <mxCell id="KuvJ722Zvkt5GNq1RVQa-17" value="idade = int (input(&quot;\nDigite sua idade: &quot;))" style="html=1;strokeWidth=2;shape=manualInput;whiteSpace=wrap;rounded=1;size=26;arcSize=11;" vertex="1" parent="1">
          <mxGeometry x="-9008" y="-2510" width="157.26" height="90" as="geometry" />
        </mxCell>
        <mxCell id="KuvJ722Zvkt5GNq1RVQa-18" style="edgeStyle=orthogonalEdgeStyle;rounded=0;orthogonalLoop=1;jettySize=auto;html=1;exitX=0.5;exitY=1;exitDx=0;exitDy=0;entryX=0.47;entryY=0.126;entryDx=0;entryDy=0;entryPerimeter=0;" edge="1" parent="1" source="KuvJ722Zvkt5GNq1RVQa-13" target="KuvJ722Zvkt5GNq1RVQa-17">
          <mxGeometry relative="1" as="geometry" />
        </mxCell>
        <mxCell id="KuvJ722Zvkt5GNq1RVQa-19" value="if idade &amp;gt; 17:" style="strokeWidth=2;html=1;shape=mxgraph.flowchart.decision;whiteSpace=wrap;" vertex="1" parent="1">
          <mxGeometry x="-9010.5" y="-2380" width="162.25" height="160" as="geometry" />
        </mxCell>
        <mxCell id="KuvJ722Zvkt5GNq1RVQa-20" style="edgeStyle=orthogonalEdgeStyle;rounded=0;orthogonalLoop=1;jettySize=auto;html=1;exitX=0.5;exitY=1;exitDx=0;exitDy=0;entryX=0.5;entryY=0;entryDx=0;entryDy=0;entryPerimeter=0;" edge="1" parent="1" source="KuvJ722Zvkt5GNq1RVQa-17" target="KuvJ722Zvkt5GNq1RVQa-19">
          <mxGeometry relative="1" as="geometry" />
        </mxCell>
        <mxCell id="KuvJ722Zvkt5GNq1RVQa-21" value="print(&quot;Infelizmente voce foi reprovado, Boa Sorte na próxima!&quot;)" style="strokeWidth=2;html=1;shape=mxgraph.flowchart.display;whiteSpace=wrap;" vertex="1" parent="1">
          <mxGeometry x="-9041.390000000001" y="-2110" width="224.04" height="100" as="geometry" />
        </mxCell>
        <mxCell id="KuvJ722Zvkt5GNq1RVQa-25" style="edgeStyle=orthogonalEdgeStyle;rounded=0;orthogonalLoop=1;jettySize=auto;html=1;exitX=0.5;exitY=1;exitDx=0;exitDy=0;exitPerimeter=0;entryX=0.5;entryY=0;entryDx=0;entryDy=0;entryPerimeter=0;" edge="1" parent="1" source="KuvJ722Zvkt5GNq1RVQa-22" target="KuvJ722Zvkt5GNq1RVQa-26">
          <mxGeometry relative="1" as="geometry">
            <mxPoint x="-8929.368421052632" y="-1790" as="targetPoint" />
          </mxGeometry>
        </mxCell>
        <mxCell id="KuvJ722Zvkt5GNq1RVQa-22" value="print(f&quot;mensagem enviada para o e-mail{email} &amp;gt;&amp;gt;&amp;gt; {mensagem_rep}&quot;)" style="strokeWidth=2;html=1;shape=mxgraph.flowchart.display;whiteSpace=wrap;" vertex="1" parent="1">
          <mxGeometry x="-9041.390000000001" y="-1970" width="224.04" height="100" as="geometry" />
        </mxCell>
        <mxCell id="KuvJ722Zvkt5GNq1RVQa-23" style="edgeStyle=orthogonalEdgeStyle;rounded=0;orthogonalLoop=1;jettySize=auto;html=1;exitX=0.5;exitY=1;exitDx=0;exitDy=0;exitPerimeter=0;entryX=0.5;entryY=0;entryDx=0;entryDy=0;entryPerimeter=0;" edge="1" parent="1" source="KuvJ722Zvkt5GNq1RVQa-19" target="KuvJ722Zvkt5GNq1RVQa-21">
          <mxGeometry relative="1" as="geometry" />
        </mxCell>
        <mxCell id="KuvJ722Zvkt5GNq1RVQa-27" value="False" style="edgeLabel;html=1;align=center;verticalAlign=middle;resizable=0;points=[];" vertex="1" connectable="0" parent="KuvJ722Zvkt5GNq1RVQa-23">
          <mxGeometry x="-0.0332" y="5" relative="1" as="geometry">
            <mxPoint as="offset" />
          </mxGeometry>
        </mxCell>
        <mxCell id="KuvJ722Zvkt5GNq1RVQa-24" style="edgeStyle=orthogonalEdgeStyle;rounded=0;orthogonalLoop=1;jettySize=auto;html=1;exitX=0.5;exitY=1;exitDx=0;exitDy=0;exitPerimeter=0;entryX=0.5;entryY=0;entryDx=0;entryDy=0;entryPerimeter=0;" edge="1" parent="1" source="KuvJ722Zvkt5GNq1RVQa-21" target="KuvJ722Zvkt5GNq1RVQa-22">
          <mxGeometry relative="1" as="geometry" />
        </mxCell>
        <mxCell id="KuvJ722Zvkt5GNq1RVQa-26" value="print(&quot;Ate a próxima, Saindo.....&quot;)" style="strokeWidth=2;html=1;shape=mxgraph.flowchart.display;whiteSpace=wrap;" vertex="1" parent="1">
          <mxGeometry x="-9041.390000000001" y="-1790" width="224.04" height="100" as="geometry" />
        </mxCell>
        <mxCell id="KuvJ722Zvkt5GNq1RVQa-28" value="print(f&quot;mensagem enviada para o e-mail{email} &amp;gt;&amp;gt;&amp;gt; {mensagem_apr}&quot;)" style="strokeWidth=2;html=1;shape=mxgraph.flowchart.display;whiteSpace=wrap;" vertex="1" parent="1">
          <mxGeometry x="-8760.000000000002" y="-2350" width="224.04" height="100" as="geometry" />
        </mxCell>
        <mxCell id="KuvJ722Zvkt5GNq1RVQa-29" style="edgeStyle=orthogonalEdgeStyle;rounded=0;orthogonalLoop=1;jettySize=auto;html=1;exitX=1;exitY=0.5;exitDx=0;exitDy=0;exitPerimeter=0;entryX=0;entryY=0.5;entryDx=0;entryDy=0;entryPerimeter=0;" edge="1" parent="1" source="KuvJ722Zvkt5GNq1RVQa-19" target="KuvJ722Zvkt5GNq1RVQa-28">
          <mxGeometry relative="1" as="geometry" />
        </mxCell>
        <mxCell id="KuvJ722Zvkt5GNq1RVQa-30" value="True" style="text;html=1;align=center;verticalAlign=middle;resizable=0;points=[];autosize=1;strokeColor=none;fillColor=none;" vertex="1" parent="1">
          <mxGeometry x="-8825" y="-2322" width="50" height="30" as="geometry" />
        </mxCell>
        <mxCell id="KuvJ722Zvkt5GNq1RVQa-34" style="edgeStyle=orthogonalEdgeStyle;rounded=0;orthogonalLoop=1;jettySize=auto;html=1;exitX=1;exitY=0.5;exitDx=0;exitDy=0;exitPerimeter=0;entryX=0;entryY=0.5;entryDx=0;entryDy=0;" edge="1" parent="1" source="KuvJ722Zvkt5GNq1RVQa-31" target="KuvJ722Zvkt5GNq1RVQa-33">
          <mxGeometry relative="1" as="geometry" />
        </mxCell>
        <mxCell id="KuvJ722Zvkt5GNq1RVQa-31" value="print(&quot;Parabens, você passou na primeira fase!!!!&quot;)" style="strokeWidth=2;html=1;shape=mxgraph.flowchart.display;whiteSpace=wrap;" vertex="1" parent="1">
          <mxGeometry x="-8460" y="-2350" width="250" height="100" as="geometry" />
        </mxCell>
        <mxCell id="KuvJ722Zvkt5GNq1RVQa-32" style="edgeStyle=orthogonalEdgeStyle;rounded=0;orthogonalLoop=1;jettySize=auto;html=1;exitX=1;exitY=0.5;exitDx=0;exitDy=0;exitPerimeter=0;entryX=0;entryY=0.5;entryDx=0;entryDy=0;entryPerimeter=0;" edge="1" parent="1" source="KuvJ722Zvkt5GNq1RVQa-28" target="KuvJ722Zvkt5GNq1RVQa-31">
          <mxGeometry relative="1" as="geometry" />
        </mxCell>
        <mxCell id="KuvJ722Zvkt5GNq1RVQa-33" value="curso = input(&quot;Voce tem curso de Qualificação na área?\nSe a resposta for SIM, digite S ou digite N para não\nEscolha S ou N &amp;gt;&quot;)" style="html=1;strokeWidth=2;shape=manualInput;whiteSpace=wrap;rounded=1;size=26;arcSize=11;" vertex="1" parent="1">
          <mxGeometry x="-8120" y="-2381" width="200" height="161" as="geometry" />
        </mxCell>
        <mxCell id="KuvJ722Zvkt5GNq1RVQa-45" style="edgeStyle=orthogonalEdgeStyle;rounded=0;orthogonalLoop=1;jettySize=auto;html=1;exitX=0.5;exitY=0;exitDx=0;exitDy=0;exitPerimeter=0;entryX=0;entryY=0.5;entryDx=0;entryDy=0;entryPerimeter=0;" edge="1" parent="1" source="KuvJ722Zvkt5GNq1RVQa-35" target="KuvJ722Zvkt5GNq1RVQa-47">
          <mxGeometry relative="1" as="geometry">
            <mxPoint x="-7460" y="-2340" as="targetPoint" />
          </mxGeometry>
        </mxCell>
        <mxCell id="KuvJ722Zvkt5GNq1RVQa-35" value="while curso != &quot;S&quot; and curso != &quot;N&quot;:" style="strokeWidth=2;html=1;shape=mxgraph.flowchart.decision;whiteSpace=wrap;" vertex="1" parent="1">
          <mxGeometry x="-7830" y="-2386" width="160" height="170" as="geometry" />
        </mxCell>
        <mxCell id="KuvJ722Zvkt5GNq1RVQa-37" style="edgeStyle=orthogonalEdgeStyle;rounded=0;orthogonalLoop=1;jettySize=auto;html=1;exitX=1;exitY=0.5;exitDx=0;exitDy=0;entryX=0;entryY=0.5;entryDx=0;entryDy=0;entryPerimeter=0;" edge="1" parent="1" source="KuvJ722Zvkt5GNq1RVQa-33" target="KuvJ722Zvkt5GNq1RVQa-35">
          <mxGeometry relative="1" as="geometry" />
        </mxCell>
        <mxCell id="KuvJ722Zvkt5GNq1RVQa-43" style="edgeStyle=orthogonalEdgeStyle;rounded=0;orthogonalLoop=1;jettySize=auto;html=1;exitX=0.5;exitY=1;exitDx=0;exitDy=0;exitPerimeter=0;entryX=0.5;entryY=0;entryDx=0;entryDy=0;" edge="1" parent="1" source="KuvJ722Zvkt5GNq1RVQa-38" target="KuvJ722Zvkt5GNq1RVQa-42">
          <mxGeometry relative="1" as="geometry" />
        </mxCell>
        <mxCell id="KuvJ722Zvkt5GNq1RVQa-38" value="print(&quot;\nDigite uma das opções validas, ou digita S(Maiusculo) - para sim ou digita N(Maiusculo) - para não!&quot;)" style="strokeWidth=2;html=1;shape=mxgraph.flowchart.display;whiteSpace=wrap;" vertex="1" parent="1">
          <mxGeometry x="-7875" y="-2140" width="250" height="120" as="geometry" />
        </mxCell>
        <mxCell id="KuvJ722Zvkt5GNq1RVQa-39" style="edgeStyle=orthogonalEdgeStyle;rounded=0;orthogonalLoop=1;jettySize=auto;html=1;exitX=0.5;exitY=1;exitDx=0;exitDy=0;exitPerimeter=0;entryX=0.5;entryY=0;entryDx=0;entryDy=0;entryPerimeter=0;" edge="1" parent="1" source="KuvJ722Zvkt5GNq1RVQa-35" target="KuvJ722Zvkt5GNq1RVQa-38">
          <mxGeometry relative="1" as="geometry" />
        </mxCell>
        <mxCell id="KuvJ722Zvkt5GNq1RVQa-40" value="True" style="edgeLabel;html=1;align=center;verticalAlign=middle;resizable=0;points=[];" vertex="1" connectable="0" parent="KuvJ722Zvkt5GNq1RVQa-39">
          <mxGeometry x="-0.3187" y="3" relative="1" as="geometry">
            <mxPoint as="offset" />
          </mxGeometry>
        </mxCell>
        <mxCell id="KuvJ722Zvkt5GNq1RVQa-42" value="curso = input(&quot;Voce tem curso de Qualificação na área?\nSe a resposta for SIM, digite S ou digite N para não\nEscolha S ou N &amp;gt;&quot;)" style="html=1;strokeWidth=2;shape=manualInput;whiteSpace=wrap;rounded=1;size=26;arcSize=11;" vertex="1" parent="1">
          <mxGeometry x="-7845" y="-1950" width="190" height="160" as="geometry" />
        </mxCell>
        <mxCell id="KuvJ722Zvkt5GNq1RVQa-44" style="edgeStyle=orthogonalEdgeStyle;rounded=0;orthogonalLoop=1;jettySize=auto;html=1;exitX=1;exitY=0.5;exitDx=0;exitDy=0;entryX=1;entryY=0.5;entryDx=0;entryDy=0;entryPerimeter=0;" edge="1" parent="1" source="KuvJ722Zvkt5GNq1RVQa-42" target="KuvJ722Zvkt5GNq1RVQa-35">
          <mxGeometry relative="1" as="geometry">
            <Array as="points">
              <mxPoint x="-7590" y="-1870" />
              <mxPoint x="-7590" y="-2301" />
            </Array>
          </mxGeometry>
        </mxCell>
        <mxCell id="KuvJ722Zvkt5GNq1RVQa-46" value="False" style="text;html=1;align=center;verticalAlign=middle;resizable=0;points=[];autosize=1;strokeColor=none;fillColor=none;" vertex="1" parent="1">
          <mxGeometry x="-7615" y="-2442" width="50" height="30" as="geometry" />
        </mxCell>
        <mxCell id="KuvJ722Zvkt5GNq1RVQa-47" value="if curso == &quot;S&quot;:" style="strokeWidth=2;html=1;shape=mxgraph.flowchart.decision;whiteSpace=wrap;" vertex="1" parent="1">
          <mxGeometry x="-7470" y="-2420" width="160" height="170" as="geometry" />
        </mxCell>
        <mxCell id="KuvJ722Zvkt5GNq1RVQa-49" value="print(f&quot;mensagem enviada para o e-mail{email} &amp;gt;&amp;gt;&amp;gt; {mensagem_apr}&quot;)" style="strokeWidth=2;html=1;shape=mxgraph.flowchart.display;whiteSpace=wrap;" vertex="1" parent="1">
          <mxGeometry x="-7250" y="-2395" width="250" height="120" as="geometry" />
        </mxCell>
        <mxCell id="KuvJ722Zvkt5GNq1RVQa-50" value="print(&quot;Parabens, você passou na segunda fase!!!!&quot;)" style="strokeWidth=2;html=1;shape=mxgraph.flowchart.display;whiteSpace=wrap;" vertex="1" parent="1">
          <mxGeometry x="-6940" y="-2395" width="250" height="120" as="geometry" />
        </mxCell>
        <mxCell id="KuvJ722Zvkt5GNq1RVQa-56" style="edgeStyle=orthogonalEdgeStyle;rounded=0;orthogonalLoop=1;jettySize=auto;html=1;exitX=1;exitY=0.5;exitDx=0;exitDy=0;exitPerimeter=0;entryX=0;entryY=0.5;entryDx=0;entryDy=0;" edge="1" parent="1" source="KuvJ722Zvkt5GNq1RVQa-51" target="KuvJ722Zvkt5GNq1RVQa-55">
          <mxGeometry relative="1" as="geometry" />
        </mxCell>
        <mxCell id="KuvJ722Zvkt5GNq1RVQa-51" value="print(&quot;\nAgora vamos falar sobre sua prova!&quot;)" style="strokeWidth=2;html=1;shape=mxgraph.flowchart.display;whiteSpace=wrap;" vertex="1" parent="1">
          <mxGeometry x="-6616" y="-2395" width="250" height="120" as="geometry" />
        </mxCell>
        <mxCell id="KuvJ722Zvkt5GNq1RVQa-52" style="edgeStyle=orthogonalEdgeStyle;rounded=0;orthogonalLoop=1;jettySize=auto;html=1;exitX=1;exitY=0.5;exitDx=0;exitDy=0;exitPerimeter=0;entryX=0;entryY=0.5;entryDx=0;entryDy=0;entryPerimeter=0;" edge="1" parent="1" source="KuvJ722Zvkt5GNq1RVQa-47" target="KuvJ722Zvkt5GNq1RVQa-49">
          <mxGeometry relative="1" as="geometry" />
        </mxCell>
        <mxCell id="KuvJ722Zvkt5GNq1RVQa-53" style="edgeStyle=orthogonalEdgeStyle;rounded=0;orthogonalLoop=1;jettySize=auto;html=1;exitX=1;exitY=0.5;exitDx=0;exitDy=0;exitPerimeter=0;entryX=0;entryY=0.5;entryDx=0;entryDy=0;entryPerimeter=0;" edge="1" parent="1" source="KuvJ722Zvkt5GNq1RVQa-49" target="KuvJ722Zvkt5GNq1RVQa-50">
          <mxGeometry relative="1" as="geometry" />
        </mxCell>
        <mxCell id="KuvJ722Zvkt5GNq1RVQa-54" style="edgeStyle=orthogonalEdgeStyle;rounded=0;orthogonalLoop=1;jettySize=auto;html=1;exitX=1;exitY=0.5;exitDx=0;exitDy=0;exitPerimeter=0;entryX=0;entryY=0.5;entryDx=0;entryDy=0;entryPerimeter=0;" edge="1" parent="1" source="KuvJ722Zvkt5GNq1RVQa-50" target="KuvJ722Zvkt5GNq1RVQa-51">
          <mxGeometry relative="1" as="geometry" />
        </mxCell>
        <mxCell id="KuvJ722Zvkt5GNq1RVQa-55" value="nota = float (input (&quot;Qual foi a nota da sua prova: &quot;))" style="html=1;strokeWidth=2;shape=manualInput;whiteSpace=wrap;rounded=1;size=26;arcSize=11;" vertex="1" parent="1">
          <mxGeometry x="-6280" y="-2410" width="210" height="150" as="geometry" />
        </mxCell>
        <mxCell id="KuvJ722Zvkt5GNq1RVQa-57" value="True" style="text;html=1;align=center;verticalAlign=middle;resizable=0;points=[];autosize=1;strokeColor=none;fillColor=none;" vertex="1" parent="1">
          <mxGeometry x="-7305" y="-2362" width="50" height="30" as="geometry" />
        </mxCell>
        <mxCell id="KuvJ722Zvkt5GNq1RVQa-58" value="print(&quot;Infelizmente voce foi reprovado, Boa Sorte na próxima!&quot;)&amp;nbsp;&amp;nbsp;" style="strokeWidth=2;html=1;shape=mxgraph.flowchart.display;whiteSpace=wrap;" vertex="1" parent="1">
          <mxGeometry x="-7515" y="-2160" width="250" height="120" as="geometry" />
        </mxCell>
        <mxCell id="KuvJ722Zvkt5GNq1RVQa-59" style="edgeStyle=orthogonalEdgeStyle;rounded=0;orthogonalLoop=1;jettySize=auto;html=1;exitX=0.5;exitY=1;exitDx=0;exitDy=0;exitPerimeter=0;entryX=0.5;entryY=0;entryDx=0;entryDy=0;entryPerimeter=0;" edge="1" parent="1" source="KuvJ722Zvkt5GNq1RVQa-47" target="KuvJ722Zvkt5GNq1RVQa-58">
          <mxGeometry relative="1" as="geometry" />
        </mxCell>
        <mxCell id="KuvJ722Zvkt5GNq1RVQa-60" value="False" style="text;html=1;align=center;verticalAlign=middle;resizable=0;points=[];autosize=1;strokeColor=none;fillColor=none;" vertex="1" parent="1">
          <mxGeometry x="-7395" y="-2222" width="50" height="30" as="geometry" />
        </mxCell>
        <mxCell id="KuvJ722Zvkt5GNq1RVQa-61" value="print(f&quot;mensagem enviada para o e-mail{email} &amp;gt;&amp;gt;&amp;gt; {mensagem_rep}&quot;)" style="strokeWidth=2;html=1;shape=mxgraph.flowchart.display;whiteSpace=wrap;" vertex="1" parent="1">
          <mxGeometry x="-7515" y="-1970" width="250" height="120" as="geometry" />
        </mxCell>
        <mxCell id="KuvJ722Zvkt5GNq1RVQa-62" style="edgeStyle=orthogonalEdgeStyle;rounded=0;orthogonalLoop=1;jettySize=auto;html=1;exitX=0.5;exitY=1;exitDx=0;exitDy=0;exitPerimeter=0;entryX=0.5;entryY=0;entryDx=0;entryDy=0;entryPerimeter=0;" edge="1" parent="1" source="KuvJ722Zvkt5GNq1RVQa-58" target="KuvJ722Zvkt5GNq1RVQa-61">
          <mxGeometry relative="1" as="geometry" />
        </mxCell>
        <mxCell id="KuvJ722Zvkt5GNq1RVQa-64" value="print(&quot;Ate a próxima, Saindo.....&quot;)" style="strokeWidth=2;html=1;shape=mxgraph.flowchart.display;whiteSpace=wrap;" vertex="1" parent="1">
          <mxGeometry x="-7502.020000000001" y="-1780" width="224.04" height="100" as="geometry" />
        </mxCell>
        <mxCell id="KuvJ722Zvkt5GNq1RVQa-65" style="edgeStyle=orthogonalEdgeStyle;rounded=0;orthogonalLoop=1;jettySize=auto;html=1;exitX=0.5;exitY=1;exitDx=0;exitDy=0;exitPerimeter=0;entryX=0.5;entryY=0;entryDx=0;entryDy=0;entryPerimeter=0;" edge="1" parent="1" source="KuvJ722Zvkt5GNq1RVQa-61" target="KuvJ722Zvkt5GNq1RVQa-64">
          <mxGeometry relative="1" as="geometry" />
        </mxCell>
        <mxCell id="KuvJ722Zvkt5GNq1RVQa-66" value="if nota &amp;gt; 7.0:" style="strokeWidth=2;html=1;shape=mxgraph.flowchart.decision;whiteSpace=wrap;" vertex="1" parent="1">
          <mxGeometry x="-5940" y="-2420" width="160" height="170" as="geometry" />
        </mxCell>
        <mxCell id="KuvJ722Zvkt5GNq1RVQa-67" style="edgeStyle=orthogonalEdgeStyle;rounded=0;orthogonalLoop=1;jettySize=auto;html=1;exitX=1;exitY=0.5;exitDx=0;exitDy=0;entryX=0;entryY=0.5;entryDx=0;entryDy=0;entryPerimeter=0;" edge="1" parent="1" source="KuvJ722Zvkt5GNq1RVQa-55" target="KuvJ722Zvkt5GNq1RVQa-66">
          <mxGeometry relative="1" as="geometry" />
        </mxCell>
        <mxCell id="KuvJ722Zvkt5GNq1RVQa-68" value="print(f&quot;mensagem enviada para o e-mail{email} &amp;gt;&amp;gt;&amp;gt; {mensagem_apr}&quot;)" style="strokeWidth=2;html=1;shape=mxgraph.flowchart.display;whiteSpace=wrap;" vertex="1" parent="1">
          <mxGeometry x="-5670" y="-2395" width="250" height="120" as="geometry" />
        </mxCell>
        <mxCell id="KuvJ722Zvkt5GNq1RVQa-69" value="print(&quot;Parabens, você esta apto(a) para a fase final!!!!&quot;)" style="strokeWidth=2;html=1;shape=mxgraph.flowchart.display;whiteSpace=wrap;" vertex="1" parent="1">
          <mxGeometry x="-5346" y="-2395" width="276" height="120" as="geometry" />
        </mxCell>
        <mxCell id="KuvJ722Zvkt5GNq1RVQa-70" style="edgeStyle=orthogonalEdgeStyle;rounded=0;orthogonalLoop=1;jettySize=auto;html=1;exitX=1;exitY=0.5;exitDx=0;exitDy=0;exitPerimeter=0;entryX=0;entryY=0.5;entryDx=0;entryDy=0;entryPerimeter=0;" edge="1" parent="1" source="KuvJ722Zvkt5GNq1RVQa-68" target="KuvJ722Zvkt5GNq1RVQa-69">
          <mxGeometry relative="1" as="geometry" />
        </mxCell>
        <mxCell id="KuvJ722Zvkt5GNq1RVQa-71" style="edgeStyle=orthogonalEdgeStyle;rounded=0;orthogonalLoop=1;jettySize=auto;html=1;exitX=1;exitY=0.5;exitDx=0;exitDy=0;exitPerimeter=0;entryX=0;entryY=0.5;entryDx=0;entryDy=0;entryPerimeter=0;" edge="1" parent="1" source="KuvJ722Zvkt5GNq1RVQa-66" target="KuvJ722Zvkt5GNq1RVQa-68">
          <mxGeometry relative="1" as="geometry" />
        </mxCell>
        <mxCell id="KuvJ722Zvkt5GNq1RVQa-72" value="True" style="text;html=1;align=center;verticalAlign=middle;resizable=0;points=[];autosize=1;strokeColor=none;fillColor=none;" vertex="1" parent="1">
          <mxGeometry x="-5740" y="-2368" width="50" height="30" as="geometry" />
        </mxCell>
        <mxCell id="KuvJ722Zvkt5GNq1RVQa-73" value="print(&quot;Infelizmente voce foi reprovado, Boa Sorte na próxima!&quot;)&amp;nbsp;&amp;nbsp;" style="strokeWidth=2;html=1;shape=mxgraph.flowchart.display;whiteSpace=wrap;" vertex="1" parent="1">
          <mxGeometry x="-5984" y="-2192" width="250" height="120" as="geometry" />
        </mxCell>
        <mxCell id="KuvJ722Zvkt5GNq1RVQa-74" value="print(f&quot;mensagem enviada para o e-mail{email} &amp;gt;&amp;gt;&amp;gt; {mensagem_rep}&quot;)" style="strokeWidth=2;html=1;shape=mxgraph.flowchart.display;whiteSpace=wrap;" vertex="1" parent="1">
          <mxGeometry x="-5985" y="-2010" width="250" height="120" as="geometry" />
        </mxCell>
        <mxCell id="KuvJ722Zvkt5GNq1RVQa-75" style="edgeStyle=orthogonalEdgeStyle;rounded=0;orthogonalLoop=1;jettySize=auto;html=1;exitX=0.5;exitY=1;exitDx=0;exitDy=0;exitPerimeter=0;entryX=0.5;entryY=0;entryDx=0;entryDy=0;entryPerimeter=0;" edge="1" parent="1" source="KuvJ722Zvkt5GNq1RVQa-73" target="KuvJ722Zvkt5GNq1RVQa-74">
          <mxGeometry relative="1" as="geometry" />
        </mxCell>
        <mxCell id="KuvJ722Zvkt5GNq1RVQa-76" value="print(&quot;Ate a próxima, Saindo.....&quot;)" style="strokeWidth=2;html=1;shape=mxgraph.flowchart.display;whiteSpace=wrap;" vertex="1" parent="1">
          <mxGeometry x="-5972.020000000001" y="-1820" width="224.04" height="100" as="geometry" />
        </mxCell>
        <mxCell id="KuvJ722Zvkt5GNq1RVQa-77" style="edgeStyle=orthogonalEdgeStyle;rounded=0;orthogonalLoop=1;jettySize=auto;html=1;exitX=0.5;exitY=1;exitDx=0;exitDy=0;exitPerimeter=0;entryX=0.5;entryY=0;entryDx=0;entryDy=0;entryPerimeter=0;" edge="1" parent="1" source="KuvJ722Zvkt5GNq1RVQa-74" target="KuvJ722Zvkt5GNq1RVQa-76">
          <mxGeometry relative="1" as="geometry" />
        </mxCell>
        <mxCell id="KuvJ722Zvkt5GNq1RVQa-78" style="edgeStyle=orthogonalEdgeStyle;rounded=0;orthogonalLoop=1;jettySize=auto;html=1;exitX=0.5;exitY=1;exitDx=0;exitDy=0;exitPerimeter=0;entryX=0.5;entryY=0;entryDx=0;entryDy=0;entryPerimeter=0;" edge="1" parent="1" source="KuvJ722Zvkt5GNq1RVQa-66" target="KuvJ722Zvkt5GNq1RVQa-73">
          <mxGeometry relative="1" as="geometry" />
        </mxCell>
        <mxCell id="KuvJ722Zvkt5GNq1RVQa-79" value="False" style="text;html=1;align=center;verticalAlign=middle;resizable=0;points=[];autosize=1;strokeColor=none;fillColor=none;" vertex="1" parent="1">
          <mxGeometry x="-5855" y="-2252" width="50" height="30" as="geometry" />
        </mxCell>
        <mxCell id="KuvJ722Zvkt5GNq1RVQa-80" value="print(&quot;Ate a próxima, Saindo.....&quot;)" style="strokeWidth=2;html=1;shape=mxgraph.flowchart.display;whiteSpace=wrap;" vertex="1" parent="1">
          <mxGeometry x="-4990.000000000002" y="-2385" width="224.04" height="100" as="geometry" />
        </mxCell>
        <mxCell id="KuvJ722Zvkt5GNq1RVQa-81" style="edgeStyle=orthogonalEdgeStyle;rounded=0;orthogonalLoop=1;jettySize=auto;html=1;exitX=1;exitY=0.5;exitDx=0;exitDy=0;exitPerimeter=0;entryX=0;entryY=0.5;entryDx=0;entryDy=0;entryPerimeter=0;" edge="1" parent="1" source="KuvJ722Zvkt5GNq1RVQa-69" target="KuvJ722Zvkt5GNq1RVQa-80">
          <mxGeometry relative="1" as="geometry" />
        </mxCell>
      </root>
    </mxGraphModel>
  </diagram>
</mxfile>
